<?xml version="1.0" encoding="UTF-8"?>
<svg id="Layer_2" data-name="Layer 2" xmlns="http://www.w3.org/2000/svg" viewBox="0 0 221.41 227.8">
  <defs>
    <style>
      .cls-1 {
        stroke-width: 0px;
      color:white;
      }
    </style>
  </defs>
  <g id="Layer_1-2" data-name="Layer 1">
    <g>
      <path class="cls-1" d="M12.94,78l.85-2.76c3.8,2.04,5.51,6.03,4.21,10.25-1.5,4.87-6.43,7.62-11.47,6.07-5.07-1.56-7.54-6.6-6.04-11.46,1.3-4.22,4.91-6.57,9.2-6.11l-.85,2.76c-2.82-.13-5,1.31-5.87,4.12-1.06,3.45.74,6.87,4.39,7.99,3.63,1.12,7.06-.68,8.13-4.13.87-2.81-.13-5.23-2.55-6.72Z"/>
      <path class="cls-1" d="M28.24,57.48l2.23,1.34-6.3,10.5-15.16-9.09,1.44-2.41,12.93,7.75,4.85-8.09Z"/>
      <path class="cls-1" d="M24.36,38.45l13.36,11.58-1.84,2.12-13.36-11.58,1.84-2.12Z"/>
      <path class="cls-1" d="M51.54,28.84l2.29-1.76c1.92,3.87,1.02,8.1-2.48,10.8-4.04,3.11-9.65,2.51-12.87-1.67-3.23-4.2-2.35-9.74,1.69-12.85,3.5-2.7,7.8-2.52,11.04.33l-2.29,1.76c-2.22-1.73-4.84-1.82-7.17-.02-2.86,2.2-3.36,6.03-1.03,9.06,2.31,3.01,6.16,3.53,9.02,1.32,2.33-1.79,2.92-4.35,1.79-6.96Z"/>
      <path class="cls-1" d="M68.08,18.74l-1.59,4.4,1.67,3.95-2.59,1.09-6.88-16.29,2.59-1.09,3.72,8.82,4.47-12.28,3.11-1.32-3.58,10.1,11.21,5.88-3.31,1.4-8.83-4.66Z"/>
      <path class="cls-1" d="M112.66,2.57l-6.26.25.59,15.1-2.78.11-.59-15.1-6.26.25-.1-2.57,15.31-.6.1,2.57Z"/>
      <path class="cls-1" d="M138.99,12.83c-.99,5-5.8,8.18-10.8,7.2-5-.99-8.25-5.76-7.26-10.76.99-5,5.8-8.18,10.8-7.2,5,.99,8.25,5.76,7.26,10.76ZM136.21,12.28c.7-3.55-1.43-6.96-4.98-7.66-3.55-.7-6.82,1.65-7.52,5.2s1.44,6.94,4.99,7.64c3.55.7,6.81-1.62,7.51-5.17Z"/>
      <path class="cls-1" d="M180.53,24.63l-16.58,10.29-2.14-1.43,3.21-19.26,2.55,1.71-2.59,15.11,13.02-8.11,2.53,1.69Z"/>
      <path class="cls-1" d="M190.91,34.51l-12.49,12.5-1.99-1.98,12.49-12.5,1.99,1.98Z"/>
      <path class="cls-1" d="M199.11,48.06l-4.17,2.89,5.04,7.26-2.12,1.47-5.04-7.26-4,2.77,5.64,8.12-2.14,1.48-7.24-10.42,14.53-10.08,7.24,10.42-2.12,1.47-5.64-8.12Z"/>
      <path class="cls-1" d="M221.41,89.51l-18.74.15-.89-2.61,10.64-8.26-13.48-.03-.89-2.61,14.91-11.34.95,2.78-11.28,8.48,14.17-.04.77,2.26-11.22,8.65,14.1-.24.96,2.8Z"/>
    </g>
    <g>
      <path class="cls-1" d="M8.86,151.31l.85,2.76c-4.29.45-7.95-1.88-9.25-6.1-1.5-4.87,1.02-9.92,6.07-11.47,5.07-1.56,9.95,1.2,11.45,6.07,1.3,4.22-.36,8.19-4.16,10.23l-.85-2.76c2.4-1.47,3.39-3.9,2.53-6.71-1.07-3.45-4.48-5.26-8.13-4.13-3.63,1.12-5.46,4.54-4.39,7.99.87,2.81,3.05,4.25,5.89,4.11Z"/>
      <path class="cls-1" d="M17.53,176.99l-2.23,1.34-6.29-10.5,15.16-9.09,1.44,2.41-12.93,7.75,4.85,8.09Z"/>
      <path class="cls-1" d="M37.73,178.03l-13.36,11.58-1.84-2.12,13.36-11.58,1.84,2.12Z"/>
      <path class="cls-1" d="M48.94,202.6l2.29,1.76c-3.24,2.85-7.57,3.06-11.07.37-4.04-3.11-4.89-8.69-1.68-12.87,3.23-4.2,8.81-4.76,12.85-1.66,3.5,2.7,4.44,6.89,2.51,10.76l-2.29-1.76c1.11-2.59.52-5.15-1.81-6.94-2.86-2.2-6.69-1.71-9.02,1.32-2.31,3.01-1.83,6.86,1.03,9.06,2.33,1.79,4.95,1.71,7.19-.05Z"/>
      <path class="cls-1" d="M67.21,211.37l-4.26,1.93-1.67,3.95-2.59-1.09,6.88-16.29,2.59,1.09-3.72,8.82,11.92-5.36,3.12,1.32-9.74,4.47,3.6,12.13-3.31-1.4-2.82-9.57Z"/>
      <path class="cls-1" d="M113.15,212.95l-6.26-.25-.59,15.1-2.78-.11.59-15.1-6.26-.25.1-2.57,15.31.6-.1,2.57Z"/>
      <path class="cls-1" d="M139,215.22c.99,5-2.26,9.78-7.26,10.76-5,.99-9.82-2.2-10.8-7.2s2.26-9.78,7.26-10.76c5-.99,9.82,2.2,10.8,7.2ZM136.22,215.77c-.7-3.55-3.97-5.9-7.52-5.2-3.55.7-5.68,4.12-4.98,7.66s3.97,5.87,7.51,5.17c3.55-.7,5.69-4.09,4.99-7.64Z"/>
      <path class="cls-1" d="M170.66,188.75l3.23,19.24-2.14,1.43-16.6-10.28,2.55-1.71,12.99,8.13-2.57-15.12,2.53-1.69Z"/>
      <path class="cls-1" d="M178.42,181.04l12.49,12.5-1.99,1.98-12.49-12.5,1.99-1.98Z"/>
      <path class="cls-1" d="M188.81,172.84l4.17,2.89,5.04-7.26,2.11,1.47-5.04,7.26,3.99,2.77,5.64-8.12,2.14,1.48-7.24,10.42-14.53-10.08,7.24-10.43,2.12,1.47-5.64,8.12Z"/>
      <path class="cls-1" d="M204.69,132.81l14.9,11.37-.89,2.61h-13.47s10.63,8.29,10.63,8.29l-.89,2.61-18.74-.18.95-2.78,14.11.21-11.22-8.65.77-2.26,14.17.04-11.29-8.45.96-2.8Z"/>
    </g>
    <circle class="cls-1" cx="4.5" cy="114.03" r="4.5"/>
    <circle class="cls-1" cx="214.45" cy="114.03" r="4.5"/>
  </g>
</svg>
